<svg width="53" height="20" viewBox="0 0 92 20" fill="none" xmlns="http://www.w3.org/2000/svg">
<path d="M91.5517 10.9966L82.3476 19.5876C82.0519 19.8625 81.6822 20 81.3126 20C80.943 20 80.5733 19.8625 80.2776 19.5876C79.6862 19.0378 79.6862 18.1787 80.2776 17.6289L86.9681 11.3746H65.381C64.5678 11.3746 63.9025 10.756 63.9025 10C63.9025 9.24398 64.5678 8.62543 65.381 8.62543H86.9681L80.2776 2.37114C79.6862 1.82131 79.6862 0.962199 80.2776 0.412371C80.869 -0.137457 81.7931 -0.137457 82.3846 0.412371L91.5887 9.00344C92.1431 9.58763 92.1431 10.4811 91.5517 10.9966Z" fill="#39D56E"/>
<rect x="0.314453" y="8.31641" width="88.7142" height="3.43643" rx="1.71822" fill="#39D56E"/>
</svg>
