<svg width="53" height="20" viewBox="0 0 53 20" fill="none" xmlns="http://www.w3.org/2000/svg">
<path d="M0.448307 10.9966L9.65238 19.5876C9.9481 19.8625 10.3178 20 10.6874 20C11.057 20 11.4267 19.8625 11.7224 19.5876C12.3138 19.0378 12.3138 18.1787 11.7224 17.6289L5.03186 11.3746H26.619C27.4322 11.3746 28.0975 10.756 28.0975 10C28.0975 9.24398 27.4322 8.62543 26.619 8.62543H5.03186L11.7224 2.37114C12.3138 1.82131 12.3138 0.962199 11.7224 0.412371C11.131 -0.137457 10.2069 -0.137457 9.61543 0.412371L0.411329 9.00344C-0.143135 9.58763 -0.14312 10.4811 0.448307 10.9966Z" fill="#9A9A9A"/>
<rect width="50" height="3.07259" rx="1.53629" transform="matrix(-1 0 0 1 52.6854 8.47925)" fill="#9A9A9A"/>
</svg>
