<svg width="20" height="20" viewBox="0 0 20 20" fill="none" xmlns="http://www.w3.org/2000/svg">
<path d="M9.99984 7.49984C9.3368 7.49984 8.70091 7.76323 8.23207 8.23207C7.76323 8.70091 7.49984 9.3368 7.49984 9.99984C7.49984 10.6629 7.76323 11.2988 8.23207 11.7676C8.70091 12.2364 9.3368 12.4998 9.99984 12.4998C10.6629 12.4998 11.2988 12.2364 11.7676 11.7676C12.2364 11.2988 12.4998 10.6629 12.4998 9.99984C12.4998 9.3368 12.2364 8.70091 11.7676 8.23207C11.2988 7.76323 10.6629 7.49984 9.99984 7.49984ZM9.99984 5.83317C11.1049 5.83317 12.1647 6.27216 12.9461 7.05356C13.7275 7.83496 14.1665 8.89477 14.1665 9.99984C14.1665 11.1049 13.7275 12.1647 12.9461 12.9461C12.1647 13.7275 11.1049 14.1665 9.99984 14.1665C8.89477 14.1665 7.83496 13.7275 7.05356 12.9461C6.27216 12.1647 5.83317 11.1049 5.83317 9.99984C5.83317 8.89477 6.27216 7.83496 7.05356 7.05356C7.83496 6.27216 8.89477 5.83317 9.99984 5.83317ZM15.4165 5.62484C15.4165 5.9011 15.3068 6.16606 15.1114 6.36141C14.9161 6.55676 14.6511 6.6665 14.3748 6.6665C14.0986 6.6665 13.8336 6.55676 13.6383 6.36141C13.4429 6.16606 13.3332 5.9011 13.3332 5.62484C13.3332 5.34857 13.4429 5.08362 13.6383 4.88827C13.8336 4.69292 14.0986 4.58317 14.3748 4.58317C14.6511 4.58317 14.9161 4.69292 15.1114 4.88827C15.3068 5.08362 15.4165 5.34857 15.4165 5.62484ZM9.99984 3.33317C7.93817 3.33317 7.6015 3.339 6.64234 3.3815C5.989 3.41234 5.55067 3.49984 5.144 3.65817C4.78234 3.79817 4.5215 3.96567 4.244 4.244C3.98318 4.496 3.78263 4.80366 3.65734 5.144C3.499 5.55234 3.4115 5.98984 3.3815 6.64234C3.33817 7.56234 3.33317 7.884 3.33317 9.99984C3.33317 12.0615 3.339 12.3982 3.3815 13.3573C3.41234 14.0098 3.49984 14.449 3.65734 14.8548C3.799 15.2173 3.96567 15.4782 4.24234 15.7548C4.52317 16.0348 4.784 16.2023 5.14234 16.3407C5.554 16.4998 5.99234 16.5882 6.64234 16.6182C7.56234 16.6615 7.884 16.6665 9.99984 16.6665C12.0615 16.6665 12.3982 16.6607 13.3573 16.6182C14.009 16.5873 14.4482 16.4998 14.8548 16.3423C15.2157 16.2015 15.4782 16.034 15.7548 15.7573C16.0357 15.4765 16.2032 15.2157 16.3415 14.8573C16.4998 14.4465 16.5882 14.0073 16.6182 13.3573C16.6615 12.4373 16.6665 12.1157 16.6665 9.99984C16.6665 7.93817 16.6607 7.6015 16.6182 6.64234C16.5873 5.99067 16.4998 5.55067 16.3415 5.144C16.2159 4.80401 16.0157 4.49647 15.7557 4.244C15.5038 3.98304 15.1961 3.78248 14.8557 3.65734C14.4473 3.499 14.009 3.4115 13.3573 3.3815C12.4373 3.33817 12.1157 3.33317 9.99984 3.33317ZM9.99984 1.6665C12.264 1.6665 12.5465 1.67484 13.4348 1.7165C14.3223 1.75817 14.9265 1.89734 15.4582 2.104C16.0082 2.31567 16.4715 2.60234 16.9348 3.06484C17.3586 3.48142 17.6865 3.98533 17.8957 4.5415C18.1015 5.07234 18.2415 5.67734 18.2832 6.56484C18.3223 7.45317 18.3332 7.73567 18.3332 9.99984C18.3332 12.264 18.3248 12.5465 18.2832 13.4348C18.2415 14.3223 18.1015 14.9265 17.8957 15.4582C17.6871 16.0147 17.3591 16.5187 16.9348 16.9348C16.5181 17.3584 16.0143 17.6863 15.4582 17.8957C14.9273 18.1015 14.3223 18.2415 13.4348 18.2832C12.5465 18.3223 12.264 18.3332 9.99984 18.3332C7.73567 18.3332 7.45317 18.3248 6.56484 18.2832C5.67734 18.2415 5.07317 18.1015 4.5415 17.8957C3.98511 17.6869 3.48111 17.359 3.06484 16.9348C2.64101 16.5183 2.31311 16.0144 2.104 15.4582C1.89734 14.9273 1.75817 14.3223 1.7165 13.4348C1.67734 12.5465 1.6665 12.264 1.6665 9.99984C1.6665 7.73567 1.67484 7.45317 1.7165 6.56484C1.75817 5.6765 1.89734 5.07317 2.104 4.5415C2.31253 3.98499 2.64051 3.48094 3.06484 3.06484C3.48123 2.64086 3.98519 2.31295 4.5415 2.104C5.07317 1.89734 5.6765 1.75817 6.56484 1.7165C7.45317 1.67734 7.73567 1.6665 9.99984 1.6665Z" fill="#CCD2E9"/>
</svg>
