<svg width="64" height="64" viewBox="0 0 64 64" fill="none" xmlns="http://www.w3.org/2000/svg">
<path d="M48.9707 15.0293L39.5413 24.4587M48.9707 15.0293C44.4698 10.5285 38.3652 8 32 8C25.6348 8 19.5302 10.5285 15.0293 15.0293M48.9707 15.0293C53.4715 19.5302 56 25.6348 56 32C56 35.1517 55.3792 38.2726 54.1731 41.1844C52.967 44.0962 51.1993 46.7421 48.9707 48.9707M39.5413 24.4587C37.5409 22.4583 34.829 21.3333 32 21.3333C29.171 21.3333 26.4591 22.4583 24.4587 24.4587M39.5413 24.4587C41.5417 26.4591 42.6667 29.171 42.6667 32C42.6667 34.829 41.5417 37.5409 39.5413 39.5413M39.5413 39.5413L48.9707 48.9707M39.5413 39.5413C37.5409 41.5417 34.829 42.6667 32 42.6667C29.171 42.6667 26.4591 41.5417 24.4587 39.5413M48.9707 48.9707C46.7421 51.1993 44.0962 52.967 41.1844 54.1731C38.2726 55.3792 35.1517 56 32 56C28.8483 56 25.7274 55.3792 22.8156 54.1731C19.9038 52.967 17.2579 51.1993 15.0293 48.9707M24.4587 24.4587L15.0293 15.0293M24.4587 24.4587C22.4583 26.4591 21.3333 29.171 21.3333 32C21.3333 34.829 22.4583 37.5409 24.4587 39.5413M15.0293 15.0293C10.5285 19.5302 8 25.6348 8 32C8 35.1517 8.62078 38.2726 9.82689 41.1844C11.033 44.0962 12.8007 46.7421 15.0293 48.9707M24.4587 39.5413L15.0293 48.9707" stroke="#CB0F13" stroke-width="3" stroke-linecap="round" stroke-linejoin="round"/>
</svg>
