<svg width="20" height="20" viewBox="0 0 20 20" fill="none" xmlns="http://www.w3.org/2000/svg">
<path d="M9.99984 7.95817C10.764 7.17734 11.759 6.6665 12.9165 6.6665C14.1321 6.6665 15.2979 7.14939 16.1574 8.00893C17.017 8.86847 17.4998 10.0343 17.4998 11.2498V17.4998H15.8332V11.2498C15.8332 10.4763 15.5259 9.73442 14.9789 9.18744C14.4319 8.64046 13.6901 8.33317 12.9165 8.33317C12.143 8.33317 11.4011 8.64046 10.8541 9.18744C10.3071 9.73442 9.99984 10.4763 9.99984 11.2498V17.4998H8.33317V7.08317H9.99984V7.95817ZM4.1665 5.4165C3.83498 5.4165 3.51704 5.28481 3.28262 5.05039C3.0482 4.81597 2.9165 4.49802 2.9165 4.1665C2.9165 3.83498 3.0482 3.51704 3.28262 3.28262C3.51704 3.0482 3.83498 2.9165 4.1665 2.9165C4.49802 2.9165 4.81597 3.0482 5.05039 3.28262C5.28481 3.51704 5.4165 3.83498 5.4165 4.1665C5.4165 4.49802 5.28481 4.81597 5.05039 5.05039C4.81597 5.28481 4.49802 5.4165 4.1665 5.4165ZM3.33317 7.08317H4.99984V17.4998H3.33317V7.08317Z" fill="#CCD2E9"/>
</svg>
