<svg width="64" height="64" viewBox="0 0 64 64" fill="none" xmlns="http://www.w3.org/2000/svg">
<path d="M20.1935 37.2876H54.2092M37.2013 23.599V57.5881M44.7427 57.5882H29.66M33.4572 23.599C33.4572 20.9845 32.4186 18.477 30.5698 16.6283C28.7211 14.7795 26.2136 13.7409 23.5991 13.7409C22.3039 13.74 21.0213 13.9943 19.8245 14.4894C18.6277 14.9844 17.5401 15.7104 16.624 16.6259C15.7079 17.5414 14.9811 18.6285 14.4853 19.8249C13.9895 21.0214 13.7343 22.3039 13.7343 23.599C13.7334 25.7972 14.4673 27.9326 15.8193 29.6658C17.1712 31.3991 19.0637 32.6307 21.1959 33.1651M23.5991 6.08008V10.2557M6.08008 23.599H10.2557M11.2116 11.2117L14.1658 14.1658M11.2116 35.9865L14.1658 33.0324M33.0324 14.1658L35.9865 11.2117M53.2665 50.9762H21.1362C20.6286 50.9764 20.1276 50.8614 19.671 50.6398C19.2143 50.4182 18.814 50.0958 18.5001 49.6969C18.1862 49.298 17.967 48.833 17.859 48.337C17.751 47.8411 17.7571 47.3271 17.8767 46.8338L22.8887 26.1615C23.067 25.4313 23.485 24.782 24.076 24.3174C24.6669 23.8528 25.3966 23.5999 26.1482 23.5991H48.2544C49.0061 23.5999 49.7358 23.8528 50.3267 24.3174C50.9176 24.782 51.3357 25.4313 51.5139 26.1615L56.526 46.8338C56.6456 47.3271 56.6516 47.8411 56.5436 48.337C56.4356 48.833 56.2164 49.298 55.9026 49.6969C55.5887 50.0958 55.1883 50.4182 54.7317 50.6398C54.2751 50.8614 53.774 50.9764 53.2665 50.9762Z" stroke="#EA5B0C" stroke-width="3" stroke-linecap="round" stroke-linejoin="round"/>
</svg>
