<svg width="64" height="64" viewBox="0 0 64 64" fill="none" xmlns="http://www.w3.org/2000/svg">
<path d="M40 13.3334V18.6667M40 29.3334V34.6667M40 45.3334V50.6667M13.3333 13.3334C11.9188 13.3334 10.5623 13.8953 9.5621 14.8955C8.5619 15.8957 8 17.2522 8 18.6667V26.6667C9.41449 26.6667 10.771 27.2286 11.7712 28.2288C12.7714 29.229 13.3333 30.5856 13.3333 32C13.3333 33.4145 12.7714 34.7711 11.7712 35.7713C10.771 36.7715 9.41449 37.3334 8 37.3334V45.3334C8 46.7479 8.5619 48.1044 9.5621 49.1046C10.5623 50.1048 11.9188 50.6667 13.3333 50.6667H50.6667C52.0812 50.6667 53.4377 50.1048 54.4379 49.1046C55.4381 48.1044 56 46.7479 56 45.3334V37.3334C54.5855 37.3334 53.229 36.7715 52.2288 35.7713C51.2286 34.7711 50.6667 33.4145 50.6667 32C50.6667 30.5856 51.2286 29.229 52.2288 28.2288C53.229 27.2286 54.5855 26.6667 56 26.6667V18.6667C56 17.2522 55.4381 15.8957 54.4379 14.8955C53.4377 13.8953 52.0812 13.3334 50.6667 13.3334H13.3333Z" stroke="#EA5B0C" stroke-width="3" stroke-linecap="round" stroke-linejoin="round"/>
</svg>
