<svg width="20" height="20" viewBox="0 0 20 20" fill="none" xmlns="http://www.w3.org/2000/svg">
<path d="M12.7501 4.62477C12.1167 4.62466 11.5086 4.8732 11.0567 5.31691C10.6047 5.76061 10.345 6.36402 10.3334 6.99727L10.3101 8.30977C10.3087 8.38024 10.2925 8.44963 10.2624 8.51337C10.2323 8.57712 10.1891 8.63379 10.1356 8.67967C10.0821 8.72555 10.0195 8.75959 9.95193 8.77957C9.88434 8.79955 9.81328 8.80501 9.74343 8.7956L8.4426 8.61894C6.73093 8.3856 5.09093 7.59727 3.5176 6.28644C3.01926 9.04477 3.9926 10.9556 6.33676 12.4298L7.7926 13.3448C7.86177 13.3882 7.91924 13.448 7.95997 13.5188C8.0007 13.5896 8.02346 13.6694 8.02626 13.751C8.02906 13.8327 8.0118 13.9137 7.97601 13.9872C7.94021 14.0606 7.88697 14.1242 7.82093 14.1723L6.49426 15.1414C7.28343 15.1906 8.0326 15.1556 8.65426 15.0323C12.5859 14.2473 15.2001 11.2889 15.2001 6.40894C15.2001 6.0106 14.3568 4.62477 12.7501 4.62477ZM8.66676 6.96644C8.68131 6.16315 8.9325 5.38199 9.3889 4.72079C9.84529 4.05958 10.4866 3.5477 11.2325 3.24924C11.9785 2.95078 12.7959 2.879 13.5824 3.04289C14.3689 3.20678 15.0896 3.59906 15.6543 4.1706C16.2468 4.16644 16.7509 4.31644 17.8784 3.6331C17.5993 4.99977 17.4618 5.5931 16.8668 6.40894C16.8668 12.7773 12.9526 15.8739 8.98093 16.6664C6.2576 17.2098 2.2976 16.3173 1.1626 15.1323C1.74093 15.0873 4.09093 14.8348 5.44926 13.8406C4.3001 13.0831 -0.274069 10.3914 2.73176 3.15477C4.1426 4.80227 5.57343 5.92394 7.02343 6.51894C7.98843 6.91477 8.2251 6.90644 8.6676 6.96727L8.66676 6.96644Z" fill="#CCD2E9"/>
</svg>
